<svg width="20" height="19" viewBox="0 0 20 19" fill="none" xmlns="http://www.w3.org/2000/svg">
<g opacity="0.5">
<path d="M4.1525 5.69762C5.1595 5.69762 5.97583 4.92211 5.97583 3.96546C5.97583 3.00881 5.1595 2.23329 4.1525 2.23329C3.1455 2.23329 2.32916 3.00881 2.32916 3.96546C2.32916 4.92211 3.1455 5.69762 4.1525 5.69762Z" fill="white"/>
<path d="M7.6975 7.01021V16.6203H10.8383V11.8679C10.8383 10.6139 11.0867 9.39946 12.7233 9.39946C14.3375 9.39946 14.3575 10.8332 14.3575 11.947V16.621H17.5V11.3509C17.5 8.76217 16.9133 6.77271 13.7283 6.77271C12.1992 6.77271 11.1742 7.56992 10.755 8.32438H10.7125V7.01021H7.6975ZM2.57916 7.01021H5.725V16.6203H2.57916V7.01021Z" fill="white"/>
</g>
</svg>
