<svg width="16" height="12" viewBox="0 0 16 12" fill="none" xmlns="http://www.w3.org/2000/svg">
<path opacity="0.5" d="M5.03344 11.6979C11.0697 11.6979 14.3722 7.19689 14.3722 3.29484C14.3722 3.1683 14.3691 3.03895 14.3628 2.91242C15.0052 2.49437 15.5597 1.97656 16 1.38332C15.4017 1.62284 14.7664 1.77928 14.1159 1.84728C14.8009 1.47786 15.3137 0.897527 15.5594 0.213853C14.915 0.557452 14.2104 0.799832 13.4756 0.930602C12.9806 0.457276 12.326 0.143878 11.6131 0.0388616C10.9003 -0.0661547 10.1688 0.0430603 9.53183 0.349621C8.89486 0.656182 8.38787 1.14301 8.08923 1.73485C7.7906 2.32668 7.71695 2.99056 7.87969 3.62383C6.575 3.56491 5.29862 3.25995 4.13332 2.7287C2.96802 2.19746 1.9398 1.45178 1.11531 0.540032C0.696266 1.19013 0.568038 1.9594 0.756687 2.69151C0.945337 3.42361 1.43671 4.06362 2.13094 4.48145C1.60975 4.46656 1.09998 4.3403 0.64375 4.11309V4.14965C0.643283 4.83187 0.905399 5.49319 1.38554 6.02119C1.86568 6.54918 2.53422 6.91127 3.2775 7.04589C2.7947 7.16475 2.28799 7.18207 1.79656 7.09651C2.0063 7.68322 2.41438 8.19638 2.96385 8.56437C3.51331 8.93235 4.17675 9.1368 4.86156 9.14918C3.69895 9.97093 2.26278 10.4166 0.784375 10.4145C0.522191 10.4142 0.260266 10.3997 0 10.3712C1.5019 11.2382 3.24902 11.6987 5.03344 11.6979Z" fill="white"/>
</svg>
