<svg width="16" height="18" viewBox="0 0 16 18" fill="none" xmlns="http://www.w3.org/2000/svg">
<path d="M4.8 10.6875C5.825 10.6875 6.31786 11.25 8 11.25C9.68214 11.25 10.1714 10.6875 11.2 10.6875C13.85 10.6875 16 12.8039 16 15.4125V16.3125C16 17.2441 15.2321 18 14.2857 18H1.71428C0.767857 18 0 17.2441 0 16.3125V15.4125C0 12.8039 2.15 10.6875 4.8 10.6875ZM1.71428 16.3125H14.2857V15.4125C14.2857 13.7391 12.9 12.375 11.2 12.375C10.6786 12.375 9.83214 12.9375 8 12.9375C6.15357 12.9375 5.325 12.375 4.8 12.375C3.1 12.375 1.71428 13.7391 1.71428 15.4125V16.3125ZM8 10.125C5.16071 10.125 2.85714 7.85742 2.85714 5.0625C2.85714 2.26758 5.16071 0 8 0C10.8393 0 13.1429 2.26758 13.1429 5.0625C13.1429 7.85742 10.8393 10.125 8 10.125ZM8 1.6875C6.11071 1.6875 4.57143 3.20273 4.57143 5.0625C4.57143 6.92227 6.11071 8.4375 8 8.4375C9.88929 8.4375 11.4286 6.92227 11.4286 5.0625C11.4286 3.20273 9.88929 1.6875 8 1.6875Z" fill="white"/>
</svg>
